<?xml version="1.0" encoding="utf-8"?>
<!-- Generator: Adobe Illustrator 28.1.0, SVG Export Plug-In . SVG Version: 6.00 Build 0)  -->
<svg version="1.1" id="Layer_1" xmlns="http://www.w3.org/2000/svg" xmlns:xlink="http://www.w3.org/1999/xlink" x="0px" y="0px"
	 width="62px" height="51px" viewBox="0 0 62 51" style="enable-background:new 0 0 62 51;" xml:space="preserve">
<style type="text/css">
	.st0{fill-rule:evenodd;clip-rule:evenodd;fill:#446995;}
	.st1{fill:#446995;}
</style>
<g>
	<path class="st0" d="M49.9,27.9v16.5c0,2,0,6.1,0,6.1H18.8c0,0-6.6,0.4-6.6-5.2v-1.7c0,0,0-8.5,0-12.6c0-1-0.3-2.9-0.3-2.9l0.7-2
		c-0.3,0.1-0.6,0.2-1,0.2C3,26,3,18.3,3.8,15.9c3.7-9.6,12.2-6,12.2-6c0.2,0.1,0.5,0.1,0.7,0c3-7.9,10.6-9.6,15-9.4
		c14.4,0.4,15,10.7,15,10.7c1.6-0.4,3.2-0.4,4.8,0c6.5,1.8,6.7,5.6,6.8,9.4C58.1,28.6,49.9,27.9,49.9,27.9z M43.9,15.9
		c-1.4,1-0.9-0.2-1.1-0.7c1.6-4.5-1.2-9.2-7.7-10.7c-11.1-1.7-14.2,5.3-15,6.7c-0.7,1.3-1.5,3.9-2,4.7c-0.1-1.7-3.1-4.4-6.8-3.4
		c-2.7,0.9-4.4,3.5-4.1,5.4c-0.2,6,6.6,4.7,8.8,4.7c1.9,0-0.3,0.4-0.7,6.5c0,3.3,0,14.8,0,14.8s-0.2,3.5,3.5,3.5h28
		c0-4,0-18.2,0-19.6c0-1.4,0.2-2.9,0.5-3.2c6.7,1.2,7.4-2.5,7.2-2.7C56.6,15.4,48.7,12.7,43.9,15.9z"/>
	<path class="st1" d="M48.3,32h4.6c0.6-2.3,3-3.8,5.4-3.1c2.4,0.6,3.8,3,3.2,5.3c-0.6,2.3-3,3.8-5.4,3.1c-1.6-0.4-2.8-1.6-3.2-3.1
		h-4.6V32z M57.1,35.3c1.2,0,2.2-1,2.2-2.2c0-1.2-1-2.2-2.2-2.2c-1.2,0-2.2,1-2.2,2.2C54.9,34.3,55.9,35.3,57.1,35.3z"/>
	<path class="st1" d="M13.7,32H9.2c-0.6-2.3-3-3.8-5.4-3.1c-2.4,0.6-3.8,3-3.2,5.3c0.6,2.3,3,3.8,5.4,3.1c1.6-0.4,2.8-1.6,3.2-3.1
		h4.6V32z M4.9,35.3c-1.2,0-2.2-1-2.2-2.2c0-1.2,1-2.2,2.2-2.2c1.2,0,2.2,1,2.2,2.2C7.1,34.3,6.1,35.3,4.9,35.3z"/>
	<path class="st1" d="M23,30.5c-2.1,0-3.7,1.7-3.7,3.7c0,2,1.7,3.7,3.7,3.7c2.1,0,3.7-1.7,3.7-3.7C26.7,32.1,25.1,30.5,23,30.5z
		 M23,35.7c-0.8,0-1.5-0.7-1.5-1.5c0-0.8,0.7-1.5,1.5-1.5c0.8,0,1.5,0.7,1.5,1.5C24.5,35,23.8,35.7,23,35.7z"/>
	<path class="st1" d="M25.2,41.6c0,0.5,0.4,0.9,0.8,0.9h10c0.5,0,0.8-0.4,0.8-0.9c0-0.5-0.4-0.9-0.8-0.9H26
		C25.5,40.7,25.2,41.1,25.2,41.6z"/>
	<path class="st1" d="M35.9,38.9c-0.5,0-0.9,0.4-0.9,0.9v1.8c0,0.5,0.4,0.9,0.9,0.9c0.5,0,0.9-0.4,0.9-0.9v-1.8
		C36.8,39.3,36.4,38.9,35.9,38.9z"/>
	<path class="st1" d="M26.1,38.9c-0.5,0-0.9,0.4-0.9,0.9v1.8c0,0.5,0.4,0.9,0.9,0.9c0.5,0,0.9-0.4,0.9-0.9v-1.8
		C27,39.3,26.6,38.9,26.1,38.9z"/>
	<path class="st1" d="M38.8,30.5c-2.1,0-3.7,1.7-3.7,3.7c0,2,1.7,3.7,3.7,3.7c2.1,0,3.7-1.7,3.7-3.7C42.5,32.1,40.8,30.5,38.8,30.5z
		 M38.8,35.7c-0.8,0-1.5-0.7-1.5-1.5c0-0.8,0.7-1.5,1.5-1.5c0.8,0,1.5,0.7,1.5,1.5C40.3,35,39.6,35.7,38.8,35.7z"/>
</g>
</svg>
