<?xml version="1.0" encoding="utf-8"?>
<!-- Generator: Adobe Illustrator 28.1.0, SVG Export Plug-In . SVG Version: 6.00 Build 0)  -->
<svg version="1.1" id="Layer_1" xmlns="http://www.w3.org/2000/svg" xmlns:xlink="http://www.w3.org/1999/xlink" x="0px" y="0px"
	 width="26px" height="23px" viewBox="0 0 26 23" style="enable-background:new 0 0 26 23;" xml:space="preserve">
<style type="text/css">
	.st0{fill:#064781;}
</style>
<path class="st0" d="M25.4,8.6c-0.2-0.3-0.5-0.4-0.8-0.4c0,0,0,0,0,0C24.2,8.3,23.3,8,21.8,7c-0.9-0.6-2-0.7-3-0.4
	c0.6-1.3,0.8-2.6,0.5-3.7c-0.5-1.6-1.8-2.4-1.8-2.4c-0.3-0.1-0.6-0.1-0.8,0c-0.3,0.2-0.4,0.4-0.4,0.7c0.2,2.9-1.6,3.1-1.8,3.1l-3,0
	c-0.2,0-1.9-0.2-1.8-3.1c0-0.3-0.1-0.6-0.4-0.7c-0.2-0.2-0.6-0.2-0.8,0c0,0-1.4,0.7-1.8,2.4C6.4,4.1,6.6,5.3,7.3,6.7c0,0,0,0-0.1,0
	c-1-0.3-2.1-0.2-3,0.4C2.7,8,1.8,8.3,1.4,8.3C1.1,8.2,0.8,8.4,0.6,8.7C0.4,9,0.5,9.3,0.7,9.6c0.9,1,1.8,1.7,2.7,2.2
	c0.6,0.3,1.4,0.5,2.1,0.6l0.9,0.1l0.2,0.5c0.5,1.5,1,2.8,1.2,4.1c-0.4,0.5-0.6,1.1-0.6,1.7c0,2.1,2.6,3.8,5.9,3.8
	c3.3,0,5.9-1.7,5.9-3.8c0-0.6-0.2-1.2-0.6-1.7c0.2-1.2,0.7-2.6,1.2-4.1l0.2-0.5c0,0,0,0,0,0l0.8-0.1c0.8-0.1,1.5-0.3,2.1-0.6
	c0.9-0.5,1.8-1.2,2.7-2.2C25.5,9.3,25.6,8.9,25.4,8.6z M6.4,9.5C6.4,9.5,6.4,9.5,6.4,9.5c-0.2,0.4-0.3,0.9-0.3,1.3l-0.5,0
	c-0.5,0-1-0.2-1.5-0.4C3.7,10.2,3.4,9.9,3,9.6c0.6-0.2,1.4-0.6,2.2-1.1C5.6,8.1,6.2,8,6.7,8.2c0.1,0,0.2,0.1,0.2,0.1
	C6.8,8.7,6.6,9.1,6.4,9.5z M17.7,3.3C17.7,3.3,17.7,3.4,17.7,3.3c0.2,0.6,0.1,1.3-0.2,2.1C17.4,5.2,17.2,5,17,4.7
	C17.3,4.3,17.6,3.9,17.7,3.3z M17.2,7.3L17.2,7.3L17.2,7.3C17.2,7.3,17.2,7.3,17.2,7.3z M8.3,3.4C8.3,3.4,8.3,3.4,8.3,3.4
	C8.3,3.4,8.3,3.3,8.3,3.4c0.2,0.5,0.4,1,0.8,1.4C8.9,5,8.7,5.3,8.5,5.5C8.2,4.7,8.2,4,8.3,3.4z M13,20.9c-2.3,0-4.3-1-4.3-2.2
	c0-1.2,2-2.2,4.3-2.2c2.3,0,4.3,1,4.3,2.2C17.3,19.9,15.3,20.9,13,20.9z M18.2,11.9L18,12.4c-0.4,1.1-0.8,2.3-1.1,3.4
	c-1.1-0.6-2.4-0.9-3.8-0.9c-1.4,0-2.8,0.3-3.8,0.9c-0.3-1.1-0.7-2.3-1.1-3.4l-0.2-0.5c-0.2-0.6-0.2-1.3,0-1.8c0.7-1.7,1.3-3,2.2-4
	H16c0.3,0.4,0.6,0.8,0.9,1.3c0,0.1,0.1,0.1,0.1,0.2c0.4,0.8,0.8,1.6,1.1,2.5l0,0.1C18.4,10.7,18.4,11.3,18.2,11.9z M21.9,10.3
	c-0.4,0.2-0.9,0.4-1.5,0.4l-0.4,0c0-0.4-0.1-0.9-0.3-1.3l-0.1-0.1c-0.2-0.4-0.3-0.8-0.5-1.2c0.1,0,0.1,0,0.2-0.1
	c0.5-0.2,1.1-0.1,1.6,0.2c0.8,0.5,1.5,0.9,2.2,1.1C22.7,9.9,22.3,10.1,21.9,10.3z M16.1,17.9h-1c-0.4,0-0.8,0.4-0.8,0.8
	c0,0.4,0.4,0.8,0.8,0.8h1c0.4,0,0.8-0.4,0.8-0.8C16.9,18.3,16.5,17.9,16.1,17.9z M11,17.9h-1c-0.4,0-0.8,0.4-0.8,0.8
	c0,0.4,0.4,0.8,0.8,0.8h1c0.4,0,0.8-0.4,0.8-0.8C11.8,18.3,11.4,17.9,11,17.9z"/>
</svg>
