<?xml version="1.0" encoding="utf-8"?>
<!-- Generator: Adobe Illustrator 28.1.0, SVG Export Plug-In . SVG Version: 6.00 Build 0)  -->
<svg version="1.1" id="Layer_1" xmlns="http://www.w3.org/2000/svg" xmlns:xlink="http://www.w3.org/1999/xlink" x="0px" y="0px"
	 width="24px" height="24px" viewBox="0 0 24 24" style="enable-background:new 0 0 24 24;" xml:space="preserve">
<style type="text/css">
	.st0{fill:#064781;}
</style>
<path class="st0" d="M23,8.7l0-0.2l-0.1,0c-0.6-1.7-1.5-3.3-2.8-4.7C18,1.7,15.1,0.5,12,0.5c-3.1,0-6,1.2-8.1,3.4
	C1.7,6,0.5,8.9,0.5,12c0,3.1,1.2,6,3.4,8.1c2.2,2.2,5.1,3.4,8.1,3.4c3.1,0,6-1.2,8.1-3.4c2.2-2.2,3.4-5.1,3.4-8.1
	C23.5,10.9,23.4,9.8,23,8.7z M9.7,5.6c-0.1,0-0.3,0.1-0.4,0.1C9,5.6,8.5,5.7,8.1,6C8,6,8,6.1,7.9,6.2C7.7,6.3,7.6,6.4,7.5,6.4
	c-0.1,0-0.2,0-0.4,0c-0.1,0-0.2,0-0.4,0c-0.4,0-1.4,0.2-1.9,0.8c-0.2,0.3-0.3,0.7-0.2,1c0.1,0.3,0.3,0.5,0.4,0.6
	c0.7,0.6,1.6,1,2.5,1.2c0.1,0,0.2,0,0.4,0.1c0.7,0.1,0.9,0.1,1.1,0.5c0.1,0.1,0.1,0.2,0.2,0.4c0.1,0.2,0.1,0.3,0.2,0.5
	c0.3,0.6,0.8,0.9,1.4,0.9c0.4,0,0.7-0.2,0.9-0.4c0.1-0.1,0.2-0.1,0.2-0.1c0.1,0,0.3,0,0.6,0.2c0.2,0.1,0.4,0.3,0.5,0.6
	c0.1,0.2,0,0.4-0.1,0.4l-1.4,1.2c-0.5,0.4-1,0.9-1,1.7c0,0.2,0,0.4,0.1,0.6c0,0,0,0.1,0,0.2c0,0,0,0-0.1,0c-0.1,0-0.3,0.1-0.4,0.2
	c-0.8,0.4-0.9,1.3-0.9,1.9c0,0.3-0.1,0.5-0.2,0.6c0,0-0.1-0.1-0.1-0.3c0-0.1-0.1-0.3-0.1-0.5c0-0.2-0.1-0.6-0.2-0.9
	c-0.1-0.4-0.4-0.7-0.6-1C8,16.5,7.8,16.2,7.7,16c0-0.2,0-0.4,0-0.6c0-0.3,0.1-0.7-0.1-1.1c-0.1-0.5-0.5-0.9-0.8-1.3
	c-0.2-0.2-0.4-0.4-0.5-0.6c-0.1-0.2-0.1-0.4-0.1-0.7c0-0.3,0-0.7-0.1-1c-0.1-0.4-0.5-0.6-0.7-0.8C5,9.6,4.4,9.1,3.9,8.6
	C3.7,8.3,3.4,8,3.4,7.7L3.3,7.5C3.2,7.3,3.2,7.2,3.1,7.1c0.5-0.8,1-1.6,1.7-2.3c1.1-1.1,2.5-2,4.1-2.5C9.1,2.9,9.3,3.5,9.5,4
	c0.2,0.4,0.4,0.9,0.3,1.3C9.8,5.5,9.7,5.5,9.7,5.6z M5,11.7c0,0.4-0.1,0.9,0.2,1.4c0.2,0.4,0.4,0.6,0.7,0.9c0.2,0.2,0.4,0.5,0.5,0.7
	c0,0.2,0,0.4,0,0.6c0,0.3-0.1,0.6,0,1c0.1,0.5,0.4,0.9,0.6,1.2c0.2,0.2,0.3,0.4,0.4,0.6c0.1,0.2,0.1,0.3,0.1,0.5
	c0,0.2,0,0.4,0.1,0.6c0.2,0.7,0.7,1.4,1.6,1.3c0.8-0.1,1.3-0.8,1.4-1.8c0-0.2,0.1-0.7,0.2-0.8c0,0,0.1,0,0.2,0
	c0.2-0.1,0.5-0.1,0.8-0.4c0.5-0.5,0.3-1,0.3-1.4c0-0.1-0.1-0.2-0.1-0.3c0-0.2,0.4-0.5,0.5-0.7l1.4-1.2c0.5-0.4,0.7-1.2,0.5-1.9
	c-0.2-0.5-0.5-0.9-1.1-1.3c-0.7-0.4-1.3-0.5-1.9-0.3c-0.2,0.1-0.3,0.2-0.5,0.3c-0.1,0-0.2,0.1-0.2,0.1c0,0-0.1-0.1-0.1-0.2
	c-0.1-0.1-0.1-0.2-0.1-0.3c-0.1-0.2-0.1-0.3-0.2-0.5c-0.5-1-1.4-1.1-2.1-1.2c-0.1,0-0.2,0-0.3,0C7.1,8.5,6.5,8.2,6,7.8
	c0.2-0.1,0.4-0.2,0.6-0.2c0.1,0,0.2,0,0.3,0c0.3,0,0.6,0.1,0.9,0c0.4-0.1,0.6-0.3,0.8-0.5c0.1,0,0.1-0.1,0.2-0.1C9,7,9.2,7,9.4,6.9
	c0.5,0,1.5-0.1,1.7-1.6c0.1-0.7-0.2-1.4-0.4-1.9C10.5,3,10.3,2.5,10.2,2c0.3,0,0.5-0.1,0.8-0.1l0,0c0.1,0.2,0.2,0.4,0.2,0.5
	c0.1,0.7,0.5,1.3,1,1.5c0.6,0.3,1.5,0.1,2-0.5c0.2-0.3,0.4-0.8,0.5-1.3c0.3,0.1,0.7,0.2,1,0.3c-0.1,0.1-0.1,0.1-0.2,0.2
	c-0.3,0.3-0.7,0.7-0.9,1c-0.1,0.1-0.3,0.3-0.3,0.6c-0.1,0.5,0.2,0.9,0.4,1.1c0.2,0.3,0.5,0.7,1.1,0.8c0.1,0,0.2,0,0.3,0
	c0.4,0,0.7-0.2,1-0.3c0.2-0.1,0.3-0.2,0.5-0.2c0.1,0,0.3,0,0.5,0.1C18.2,5.9,18.5,6,18.8,6c0.4,0,0.8-0.1,1.1-0.5
	c0.7,0.9,1.3,1.9,1.7,3c-0.1,0-0.2,0-0.3,0c-0.1,0-0.3,0-0.5,0c-0.4,0-0.8-0.1-1.2-0.3c-0.3-0.1-0.6-0.2-1-0.3c-1-0.2-2,0.3-2.6,1.4
	c-0.2,0.3-1,1.9-0.3,2.8c0.3,0.4,0.6,0.6,0.9,0.7c0.4,0.2,0.8,0.5,1.2,0.6c0.1,0,0.2,0.1,0.3,0.1c0.3,0.1,0.6,0.2,0.7,0.4
	c0.1,0.1,0.1,0.4,0.1,0.7c0,0.3-0.1,0.6-0.2,0.9c-0.3,0.7-0.6,1.7,0.2,2.7c0.2,0.2,0.4,0.4,0.6,0.5c-0.1,0.1-0.2,0.2-0.3,0.3
	c-1.9,1.9-4.5,3-7.2,3c-2.7,0-5.3-1.1-7.2-3c-1.9-1.9-3-4.5-3-7.2c0-1.1,0.2-2.2,0.5-3.3C2.5,9,2.8,9.3,3,9.5
	c0.6,0.6,1.2,1.1,1.8,1.6c0,0,0.2,0.1,0.2,0.1C5,11.3,5,11.5,5,11.7z M18.8,4.7c-0.1,0-0.3-0.1-0.4-0.1c-0.3-0.1-0.6-0.2-1-0.2
	c-0.4,0-0.7,0.2-0.9,0.3c-0.2,0.1-0.4,0.2-0.4,0.2c-0.1,0-0.3-0.2-0.3-0.3c0,0,0,0,0-0.1c0.2-0.2,0.5-0.5,0.8-0.8
	c0.2-0.2,0.4-0.4,0.5-0.5c0.7,0.4,1.4,0.9,1.9,1.4C18.9,4.7,18.9,4.7,18.8,4.7z M19.9,16.2c0.1-0.4,0.3-0.8,0.3-1.2
	c0.1-0.7,0-1.2-0.3-1.6c-0.4-0.5-0.9-0.7-1.3-0.8c-0.1,0-0.2-0.1-0.2-0.1c-0.4-0.1-0.7-0.3-1-0.6c-0.2-0.1-0.4-0.2-0.5-0.4
	c-0.1-0.1,0-0.8,0.4-1.4c0.2-0.4,0.6-0.7,1-0.7c0,0,0.1,0,0.1,0c0.3,0.1,0.5,0.1,0.8,0.2c0.5,0.2,1,0.4,1.8,0.3c0.1,0,0.3,0,0.4,0
	c0.2,0,0.4,0,0.6,0c0.2,0.7,0.2,1.4,0.2,2.1c0,2.1-0.6,4.1-1.8,5.8c-0.2-0.1-0.3-0.2-0.5-0.3C19.6,17.2,19.6,16.9,19.9,16.2z
	 M13.1,2.6c-0.1,0.1-0.3,0.2-0.4,0.1c-0.1,0-0.2-0.2-0.3-0.5c0-0.1-0.1-0.3-0.1-0.4c0.3,0,0.7,0,1,0.1C13.3,2.2,13.2,2.5,13.1,2.6z"
	/>
</svg>
