<?xml version="1.0" encoding="utf-8"?>
<!-- Generator: Adobe Illustrator 28.1.0, SVG Export Plug-In . SVG Version: 6.00 Build 0)  -->
<svg version="1.1" id="Layer_1" xmlns="http://www.w3.org/2000/svg" xmlns:xlink="http://www.w3.org/1999/xlink" x="0px" y="0px"
	 width="26px" height="23px" viewBox="0 0 26 23" style="enable-background:new 0 0 26 23;" xml:space="preserve">
<style type="text/css">
	.st0{fill-rule:evenodd;clip-rule:evenodd;fill:#064781;}
</style>
<path class="st0" d="M20.2,14.4c-0.3,2.7-3.1,4.8-3.2,4.9c-0.2,0.1-0.4,0.2-0.5,0.1c-0.2,0-0.4-0.1-0.5-0.3c-0.7-1-1.1-1.8-1.2-2.4
	c-1.5,0.4-3,0.6-4,0.6c0.1,2.6-2.2,4.3-2.3,4.3c-0.1,0.1-0.3,0.1-0.4,0.1c0,0-0.1,0-0.1,0c-0.2,0-0.4-0.1-0.5-0.3
	c-1.7-2.3-1.9-4.1-1.7-5.1c-1-0.2-2.7-0.8-4.4-3.2C1,13.1,1,12.9,1,12.7c0-0.2,0.1-0.4,0.3-0.5c0.1-0.1,2.4-1.7,4.9-0.9
	c0.3-0.7,0.7-1.6,1.2-2.5c-0.6-0.5-2-1.5-3.5-2.4C3.7,6.4,3.6,6.1,3.6,5.9c0-0.3,0.1-0.5,0.4-0.6C4.2,5.1,9.6,2,12.9,2.7
	c3.6-2,7.7-2.2,11.6-0.4c0,0,0,0,0,0c0.2,0.1,0.4,0.3,0.4,0.6C25.5,7.5,23.7,11.7,20.2,14.4z M16.6,17.7c0.5-0.4,1.2-1.2,1.7-2.2
	c-0.7,0.3-1.4,0.6-2.3,0.8C16.1,16.6,16.2,17,16.6,17.7z M5.7,5.9c0.8,0.5,1.7,1.2,2.4,1.7C9,6.2,10,4.9,10.9,4.1
	C9,4.4,6.8,5.4,5.7,5.9z M23.5,3.5c-3.8-1.6-7.8-1.1-11,1.2c-2.4,1.8-4.9,6.6-5.1,7.8c0,0.2-0.2,0.4-0.4,0.6c-0.2,0.1-0.5,0.1-0.7,0
	c-1.3-0.7-2.6-0.4-3.4,0c1.9,2.2,3.5,2,3.5,2c0,0,0.1,0,0.1,0c0.2,0,0.5,0.1,0.6,0.3c0.2,0.2,0.2,0.5,0.1,0.7c0,0.1-0.7,1.5,0.9,3.9
	c0.6-0.6,1.4-1.8,1.1-3.2c-0.1-0.2,0-0.5,0.2-0.7c0,0,0.1-0.1,0.1-0.1c0.2-0.1,0.4-0.2,0.6-0.1c1.3,0.2,6.7-0.7,9.1-2.4
	C22.2,11.2,23.9,7.5,23.5,3.5z M19.6,11.9c-0.1,0-2-0.7-3.6-3c-1.7-2.2-1.8-4.2-1.8-4.3c0-0.4,0.3-0.7,0.7-0.8
	c0.4,0,0.8,0.3,0.8,0.7c0,0,0.1,1.7,1.5,3.5c1.4,1.9,3,2.5,3,2.5c0.2,0.1,0.3,0.2,0.4,0.4c0.1,0.2,0.1,0.4,0,0.6
	c-0.1,0.1-0.1,0.3-0.3,0.3c-0.1,0.1-0.3,0.1-0.4,0.1C19.8,11.9,19.7,11.9,19.6,11.9z M18.6,6.3c-0.4,0-0.8-0.2-1-0.5
	c-0.2-0.3-0.3-0.6-0.2-0.9c0.1-0.3,0.2-0.6,0.5-0.8c0.6-0.4,1.3-0.3,1.8,0.3c0.4,0.6,0.3,1.3-0.3,1.7C19.1,6.3,18.9,6.3,18.6,6.3z
	 M17.6,11.3c0.3,0.2,0.4,0.7,0.2,1c0,0.1-0.1,0.1-0.2,0.2c-0.1,0.1-0.3,0.1-0.4,0.1c-0.1,0-0.3,0-0.4-0.1c-0.6-0.4-1.6-1.2-2.5-2.4
	c-1.7-2.2-1.8-4.2-1.8-4.3c0-0.4,0.3-0.7,0.7-0.8c0,0,0,0,0,0C13.7,5,14,5.3,14,5.7c0,0,0.1,1.7,1.5,3.5
	C16.3,10.3,17.1,10.9,17.6,11.3z"/>
</svg>
