<?xml version="1.0" encoding="utf-8"?>
<!-- Generator: Adobe Illustrator 28.1.0, SVG Export Plug-In . SVG Version: 6.00 Build 0)  -->
<svg version="1.1" id="Layer_1" xmlns="http://www.w3.org/2000/svg" xmlns:xlink="http://www.w3.org/1999/xlink" x="0px" y="0px"
	 width="26px" height="24px" viewBox="0 0 26 24" style="enable-background:new 0 0 26 24;" xml:space="preserve">
<style type="text/css">
	.st0{fill-rule:evenodd;clip-rule:evenodd;fill:#064781;}
</style>
<path class="st0" d="M19.1,18.3c-1.8,1.5-3.7,2.9-5.7,4.1v0l0,0c0,0,0,0,0,0l-0.1,0l0,0c-0.1,0.1-0.2,0.1-0.4,0.1
	c-0.1,0-0.2,0-0.3-0.1v0l0,0c0,0,0,0-0.1,0l-0.2-0.1c-0.2-0.1-0.4-0.2-0.6-0.3c-0.7-0.4-1.3-0.8-1.9-1.3c-1.4-1-3.5-2.6-5.3-4.6
	c-0.1-0.2-0.2-0.3-0.2-0.6c0-0.2,0.1-0.4,0.3-0.5c0.2-0.1,0.4-0.2,0.6-0.2c0.2,0,0.4,0.1,0.5,0.3c1.7,1.9,3.6,3.4,5,4.4
	c0.7,0.5,1.4,1,2.2,1.4l0.1,0c1.8-1.1,3.5-2.3,5-3.7c2.4-2.2,5.4-5.5,5.4-9.1c0-2.8-2.3-5-5.1-5c-2.1,0-3.9,1.2-4.7,3.1l0,0L13,6.7
	l-0.7-0.6C11.8,5,11,4.2,10,3.6C8.8,3,7.4,2.9,6.1,3.3c-1.3,0.4-2.4,1.3-3,2.4C2.7,6.4,2.5,7.2,2.5,8c0,0.1,0,0.3,0,0.4
	c0,0.2,0,0.4-0.2,0.6C2.3,9.1,2.1,9.2,1.9,9.2c-0.2,0-0.4,0-0.6-0.2C1.1,8.9,1,8.8,1,8.6l0,0C1,8.4,1,8.2,1,8c0-3.6,3-6.5,6.6-6.5
	c2.1,0,4.2,1,5.4,2.7c1-1.4,2.5-2.3,4.1-2.6c1.7-0.3,3.5,0,5,1C23.9,3.8,25,5.9,25,8C25,11.4,23,14.8,19.1,18.3z M2.2,11.2h4.1
	l1.6-2.3C8,8.7,8.2,8.6,8.5,8.6c0.3,0,0.5,0.1,0.6,0.3l3,4.4l1.2-1.7c0.1-0.2,0.4-0.3,0.6-0.3h2.7c0.4,0,0.8,0.3,0.8,0.8
	c0,0.4-0.3,0.8-0.8,0.8h-2.3l-1.6,2.3c-0.1,0.2-0.3,0.3-0.5,0.3c-0.1,0-0.1,0-0.2,0c-0.2,0-0.3,0-0.4-0.1c-0.1-0.1-0.2-0.1-0.2-0.2
	l-3-4.4l-1.2,1.7c-0.1,0.2-0.4,0.3-0.6,0.3H2.2c-0.4,0-0.8-0.3-0.8-0.8C1.4,11.6,1.8,11.2,2.2,11.2z"/>
</svg>
