<?xml version="1.0" encoding="utf-8"?>
<!-- Generator: Adobe Illustrator 28.1.0, SVG Export Plug-In . SVG Version: 6.00 Build 0)  -->
<svg version="1.1" id="Layer_1" xmlns="http://www.w3.org/2000/svg" xmlns:xlink="http://www.w3.org/1999/xlink" x="0px" y="0px"
	 width="26px" height="26px" viewBox="0 0 26 26" style="enable-background:new 0 0 26 26;" xml:space="preserve">
<style type="text/css">
	.st0{fill:#064781;}
</style>
<path class="st0" d="M24.3,17.4h-0.5c-0.3-2-1.8-3.6-3.8-3.9c-1.3-1.3-3-2.1-4.9-2.1c-1,0-2.1,0.3-3,0.7c-0.7-0.4-1.5-0.6-2.3-0.7
	c0-0.3,0.1-0.7,0.3-1c1-1,1-2.5,0.1-3.6h0.5c0.8,0,1.4-0.5,1.7-1.1h10.8C24.2,5.8,25,5,25,4c0-1-0.8-1.8-1.8-1.8H12.4
	c-0.3-0.6-1-1.1-1.7-1.1H5.1H4.4C4,1.1,3.7,1.4,3.7,1.8S4,2.5,4.4,2.5h0.7h0C5.3,2.7,5.3,3,5.3,3.2H4.2C3.8,3.2,3.5,3.6,3.5,4
	c0,0.4,0.3,0.7,0.7,0.7h0.3C4.4,4.9,4.3,5.2,4.2,5.5C3.9,5.5,3.7,5.8,3.7,6.1c0,0.4,0.3,0.7,0.7,0.7h0C4.5,7.2,4.7,7.5,5,7.7
	C5.4,8.2,5.4,9,5,9.4c-0.9,0.9-1,2.4-0.2,3.4c-1.4,1.1-2.3,2.7-2.5,4.5H1.7c-0.4,0-0.7,0.3-0.7,0.7c0,3.8,3.1,6.8,6.9,6.8h10.3
	c3.8,0,6.9-3.1,6.9-6.8C25,17.7,24.7,17.4,24.3,17.4z M22.3,17.4h-6.5c0.3-1.5,1.7-2.6,3.2-2.6C20.6,14.8,22,15.9,22.3,17.4z
	 M9.9,17.4c-0.3-0.5-0.3-1.1,0.1-1.5c0.5-0.5,0.8-1.2,0.8-1.9c0-0.3-0.1-0.6-0.2-0.9c1.9,0.6,3.3,2.3,3.6,4.3H9.9z M15,12.8
	c1,0,1.9,0.3,2.8,0.8c-1.1,0.3-2,0.9-2.6,1.8c-0.4-0.9-1-1.7-1.7-2.4C13.9,12.9,14.5,12.8,15,12.8z M23.6,4c0,0.2-0.2,0.4-0.4,0.4
	h-9.3h-1.3V3.6h10.6C23.4,3.6,23.6,3.7,23.6,4z M11.2,3v1.9c0,0.3-0.2,0.5-0.5,0.5H9.8C9.8,5.3,9.9,5.1,10,5
	c0.7-0.7,0.9-1.6,0.7-2.5C11,2.5,11.2,2.7,11.2,3z M9.2,2.5C9.5,2.9,9.4,3.6,9,4C8.4,4.6,8.2,5.4,8.3,6.1c0,0,0,0,0,0c0,0,0,0,0,0.1
	C8.4,6.8,8.6,7.3,9,7.7C9.5,8.2,9.5,9,9,9.4c-1,1-1,2.7,0,3.7c0.2,0.2,0.4,0.5,0.4,0.9S9.3,14.7,9,14.9c-0.7,0.7-0.9,1.6-0.7,2.5
	H5.8c-0.3-0.5-0.3-1.1,0.1-1.5c0.5-0.5,0.8-1.2,0.8-1.9S6.5,12.7,6,12.2c-0.5-0.5-0.5-1.2,0-1.7c1-1,1-2.7,0-3.7
	C5.8,6.5,5.6,6.2,5.6,5.9C5.6,5.5,5.8,5.2,6,5c0.7-0.7,0.9-1.6,0.7-2.5H9.2z M5.3,14.3c-0.1,0.2-0.1,0.4-0.3,0.6
	c-0.7,0.7-0.9,1.6-0.7,2.5H3.7C3.8,16.2,4.4,15.1,5.3,14.3z M18.1,23.5H7.9c-2.7,0-5-2-5.4-4.7h21C23.2,21.5,20.9,23.5,18.1,23.5z"
	/>
</svg>
