<?xml version="1.0" encoding="utf-8"?>
<!-- Generator: Adobe Illustrator 28.1.0, SVG Export Plug-In . SVG Version: 6.00 Build 0)  -->
<svg version="1.1" id="Layer_1" xmlns="http://www.w3.org/2000/svg" xmlns:xlink="http://www.w3.org/1999/xlink" x="0px" y="0px"
	 width="26px" height="26px" viewBox="0 0 26 26" style="enable-background:new 0 0 26 26;" xml:space="preserve">
<style type="text/css">
	.st0{fill:#064781;}
</style>
<path class="st0" d="M13,0.5C6.1,0.5,0.5,6.1,0.5,13S6.1,25.5,13,25.5c6.9,0,12.5-5.6,12.5-12.5S19.9,0.5,13,0.5z M2.4,13
	C2.4,7.1,7.1,2.4,13,2.4c2.5,0,4.9,0.9,6.8,2.5l-2,2c-0.2-0.5-0.6-1-1.1-1.3c-0.6-0.3-1.3-0.4-1.9-0.3c-0.5-0.5-1.1-0.7-1.8-0.7
	c-0.7,0-1.4,0.3-1.8,0.7c-0.6-0.2-1.3-0.1-1.9,0.3c-0.6,0.3-1,0.9-1.2,1.5C7.4,7.3,6.9,7.7,6.6,8.3c-0.3,0.6-0.4,1.3-0.3,1.9
	c-0.3,0.3-0.5,0.7-0.6,1.1H5.3c-0.4,0-0.7,0.3-0.7,0.7c0,2.2,0.8,4.2,2.3,5.8l-2.1,2.1C3.2,17.9,2.4,15.5,2.4,13z M9.4,18
	c0,0-0.1,0-0.1-0.1l5.3-5.3H20c-0.2,2.2-1.5,4.2-3.4,5.4H9.4z M16.2,19.4v0.3c0,0.2-0.1,0.3-0.3,0.3h-5.8c-0.2,0-0.3-0.1-0.3-0.3
	v-0.3H16.2z M7.7,10.1C7.5,9.8,7.5,9.3,7.7,9c0.2-0.3,0.6-0.6,1-0.6c0.3,0,0.6-0.3,0.6-0.6c0-0.4,0.3-0.8,0.6-1
	c0.3-0.2,0.8-0.2,1.1,0c0.3,0.1,0.7,0,0.9-0.2C12.2,6.2,12.6,6,13,6c0.4,0,0.8,0.2,1,0.5c0.2,0.3,0.6,0.4,0.9,0.2
	c0.4-0.2,0.8-0.2,1.1,0c0.3,0.2,0.6,0.6,0.6,1c0,0.1,0,0.1,0.1,0.2l-1.1,1.1c0-0.3-0.3-0.6-0.7-0.6c-0.4,0-0.7,0.3-0.7,0.7
	c0,0.4,0.3,0.6,0.6,0.7l-1.5,1.5H7.1c0.1-0.1,0.2-0.2,0.3-0.3l0,0C7.7,10.8,7.8,10.4,7.7,10.1z M12,12.7l-4.1,4.1
	c-1.1-1.1-1.7-2.6-1.9-4.1H12z M16,11.3l0.6-0.6c0.1,0,0.2,0.1,0.3,0.1c0.4,0,0.7-0.3,0.7-0.7c0-0.1,0-0.2-0.1-0.3L18.3,9
	c0.2,0.3,0.2,0.7,0,1.1c-0.1,0.3,0,0.7,0.2,0.9c0.1,0.1,0.2,0.2,0.3,0.3H16z M13,23.6c-2.5,0-4.9-0.9-6.8-2.5L8.3,19
	c0,0,0.1,0.1,0.1,0.1v0.7c0,0.9,0.7,1.6,1.6,1.6h5.8c0.9,0,1.6-0.7,1.6-1.6V19c2.4-1.6,3.8-4.2,3.8-7c0-0.4-0.3-0.7-0.7-0.7h-0.4
	c-0.1-0.4-0.3-0.8-0.6-1.1c0.2-0.6,0.1-1.3-0.3-1.9c-0.1-0.1-0.1-0.2-0.2-0.3l1.9-1.9c1.6,1.9,2.5,4.3,2.5,6.8
	C23.6,18.9,18.9,23.6,13,23.6z M9.1,9.8c0.4,0,0.7-0.3,0.7-0.7c0-0.4-0.3-0.7-0.7-0.7c-0.4,0-0.7,0.3-0.7,0.7
	C8.4,9.5,8.7,9.8,9.1,9.8z"/>
</svg>
