<?xml version="1.0" encoding="utf-8"?>
<!-- Generator: Adobe Illustrator 28.1.0, SVG Export Plug-In . SVG Version: 6.00 Build 0)  -->
<svg version="1.1" id="Layer_1" xmlns="http://www.w3.org/2000/svg" xmlns:xlink="http://www.w3.org/1999/xlink" x="0px" y="0px"
	 width="24px" height="27px" viewBox="0 0 24 27" style="enable-background:new 0 0 24 27;" xml:space="preserve">
<style type="text/css">
	.st0{fill-rule:evenodd;clip-rule:evenodd;fill:#064781;}
</style>
<path class="st0" d="M23.9,9.2c0.1,1.1-0.3,2.2-1.1,2.9c0.5,0.6,0.8,1.4,0.8,2.2c-0.1,1.3-0.9,2.5-2.2,3.2c-1.7,0.9-5.7,3.1-6.4,5.1
	c-0.1,1.5-1.4,2.8-3,2.8c-1.6,0-2.9-1.2-3-2.8c-0.8-2-4.7-4.1-6.4-5.1c-1.3-0.7-2.1-1.9-2.2-3.2c0-0.8,0.2-1.6,0.8-2.2
	C0.4,11.4,0,10.3,0.1,9.2C0.3,8,1,7,2.1,6.5C2,5.8,2,5.2,2.3,4.5c0.4-0.9,1.1-1.5,2-1.8C5.2,2.4,6.1,2.4,7,2.8
	c0.7,0.4,1.3,0.9,1.6,1.7c0,0,0,0,0.1,0C8.7,3.8,9,3.2,9.5,2.7c1.3-1.4,3.7-1.4,5,0c0.5,0.5,0.8,1.1,0.9,1.8c0,0,0,0,0.1,0
	c0.3-0.7,0.9-1.3,1.6-1.7c0.8-0.4,1.8-0.5,2.7-0.1c0.9,0.3,1.6,1,2,1.8c0.3,0.6,0.4,1.3,0.2,2C23,7,23.7,8,23.9,9.2z M6.3,4.1
	C5.8,3.9,5.3,3.8,4.8,4C4.2,4.2,3.8,4.6,3.6,5.1c-0.2,0.5-0.2,1.1,0,1.6c0.1,0.2,0.1,0.4,0,0.6C3.5,7.5,3.3,7.6,3.1,7.6
	c-1,0.2-1.5,1-1.5,1.7c-0.1,0.7,0.2,1.6,1.1,2C2.9,11.5,3,11.7,3.1,12c0,0.3-0.1,0.5-0.3,0.6c-0.6,0.4-0.9,1-0.9,1.6
	c0,0.8,0.6,1.5,1.5,2c1.9,1,3.8,2.2,5.1,3.4c-0.7-1.7-1.9-3.3-3.1-4.6c-1-1.1-1.3-2.5-1-3.7c0.2-0.8,0.8-1.4,1.5-1.8
	c-0.5-0.9-0.5-2.1,0-3.1C6.2,5.7,6.6,5.3,7.2,5C7,4.6,6.7,4.3,6.3,4.1z M14.8,5.9c-0.2,0-0.4,0-0.6-0.2C14.1,5.6,14,5.4,14,5.2
	c0-0.6-0.2-1.1-0.6-1.5c-0.8-0.8-2.1-0.8-2.9,0C10.2,4.1,10,4.6,10,5.2c0,0.2-0.1,0.4-0.2,0.6C9.6,5.9,9.4,5.9,9.2,5.9
	c-0.1,0-0.2,0-0.3,0C8,5.9,7.4,6.4,7.1,7C6.8,7.6,6.8,8.5,7.5,9.3C7.7,9.5,7.7,9.7,7.7,10c-0.1,0.2-0.3,0.4-0.5,0.5
	c-0.7,0.2-1.2,0.6-1.4,1.2c-0.2,0.7,0,1.7,0.7,2.4c1.9,2.2,4,4.9,4,8.3c0,0.9,0.7,1.6,1.6,1.6c0.9,0,1.6-0.7,1.6-1.6
	c0-3.4,2.1-6.1,4-8.3c0.6-0.7,0.9-1.7,0.7-2.4c-0.2-0.6-0.7-1-1.4-1.2c-0.2-0.1-0.4-0.2-0.5-0.5c-0.1-0.2,0-0.5,0.2-0.7
	c0.7-0.7,0.6-1.7,0.3-2.3C16.5,6.4,15.9,5.8,14.8,5.9z M20.9,7.6c-0.2,0-0.4-0.2-0.5-0.4c-0.1-0.2-0.1-0.4,0-0.6
	c0.2-0.5,0.2-1.1,0-1.6c-0.2-0.5-0.6-0.9-1.2-1.1c-0.5-0.2-1.1-0.2-1.6,0.1C17.3,4.3,17,4.6,16.8,5c0.5,0.3,1,0.8,1.3,1.4
	c0.5,1,0.5,2.1,0,3.1c0.7,0.4,1.2,1,1.5,1.8c0.4,1.2,0,2.6-1,3.7c-1.2,1.4-2.4,2.9-3.1,4.6c1.4-1.2,3.2-2.3,5.1-3.4
	c0.9-0.5,1.4-1.2,1.5-2c0-0.6-0.3-1.2-0.9-1.6c-0.2-0.1-0.3-0.4-0.3-0.6c0-0.3,0.2-0.5,0.4-0.6c0.9-0.5,1.2-1.4,1.1-2
	C22.4,8.7,21.9,7.9,20.9,7.6z M16.2,13.3l-3.5,3v6.1c0,0.4-0.3,0.7-0.7,0.7s-0.7-0.3-0.7-0.7v-6.1l-3.5-3c-0.3-0.3-0.3-0.7-0.1-1
	c0.3-0.3,0.7-0.3,1-0.1l2.6,2.2v-3.7L9,8.8c-0.3-0.3-0.3-0.7-0.1-1c0.3-0.3,0.7-0.3,1-0.1l1.3,1.1V5.2c0-0.4,0.3-0.7,0.7-0.7
	s0.7,0.3,0.7,0.7v3.7l1.3-1.1c0.3-0.3,0.7-0.2,1,0.1c0.3,0.3,0.2,0.7-0.1,1l-2.3,1.9v3.7l2.6-2.2c0.3-0.3,0.7-0.2,1,0.1
	C16.6,12.6,16.5,13,16.2,13.3z"/>
</svg>
