<?xml version="1.0" encoding="utf-8"?>
<!-- Generator: Adobe Illustrator 28.1.0, SVG Export Plug-In . SVG Version: 6.00 Build 0)  -->
<svg version="1.1" id="Layer_1" xmlns="http://www.w3.org/2000/svg" xmlns:xlink="http://www.w3.org/1999/xlink" x="0px" y="0px"
	 width="26px" height="23px" viewBox="0 0 26 23" style="enable-background:new 0 0 26 23;" xml:space="preserve">
<style type="text/css">
	.st0{fill-rule:evenodd;clip-rule:evenodd;fill:#064781;}
</style>
<path class="st0" d="M23.5,7.3L23.5,7.3c0.6,1.3,1,2.7,1,4.2c0,5.5-5.2,10-11.5,10S1.5,17,1.5,11.5c0-1.4,0.4-2.9,1.1-4.2l-0.1,0
	c-0.5-0.2-0.9-0.6-1-1.2C1.4,5.5,1.7,5,2.1,4.7l3.6-2.6c0.5-0.3,1-0.4,1.6-0.1c0.3,0.1,0.5,0.3,0.6,0.6c1.6-0.7,3.3-1.1,5.1-1.1
	c1.8,0,3.5,0.4,5.1,1.1c0.1-0.2,0.3-0.4,0.6-0.6c0.5-0.3,1.1-0.2,1.6,0.1l3.6,2.6c0.5,0.3,0.7,0.9,0.6,1.4
	C24.4,6.7,24.1,7.1,23.5,7.3z M19.4,6.1c0,0.2,0.1,0.4,0.3,0.6c0.2,0.1,0.4,0.2,0.6,0.1l2.6-0.9l-3.5-2.5L19.4,6.1z M3.1,5.9
	l2.6,0.9c0.2,0.1,0.4,0.1,0.6-0.1c0.2-0.1,0.3-0.3,0.3-0.6l0-2.7L3.1,5.9z M8.1,4.2l0,2c0,0.7-0.3,1.4-0.9,1.8
	C6.8,8.2,6.3,8.4,5.9,8.4c-0.3,0-0.5,0-0.8-0.1L4,7.9C3.4,9,3,10.2,3,11.5c0,2.2,1,4.3,2.9,5.9c1.9,1.6,4.4,2.5,7.1,2.5
	c2.7,0,5.2-0.9,7.1-2.5c1.9-1.6,2.9-3.7,2.9-5.9c0-1.3-0.4-2.5-1-3.6l-1.1,0.4c-0.2,0.1-0.5,0.1-0.8,0.1c-0.4,0-0.9-0.1-1.3-0.4
	c-0.6-0.4-0.9-1.1-0.9-1.8l0-2c-1.5-0.7-3.2-1.1-4.9-1.1C11.3,3.1,9.6,3.4,8.1,4.2z M16.1,9.9c-0.4,0-0.8-0.3-0.8-0.8
	c0-0.4,0.3-0.8,0.8-0.8c0.4,0,0.8,0.3,0.8,0.8C16.8,9.6,16.5,9.9,16.1,9.9z M18.4,14.6c0,1.1-0.6,2.1-1.7,2.8c-1,0.7-2.3,1-3.7,1
	s-2.7-0.4-3.7-1c-1.1-0.7-1.7-1.7-1.7-2.8c0-1.1,0.6-2.1,1.7-2.8c1-0.7,2.3-1,3.7-1s2.7,0.4,3.7,1C17.8,12.5,18.4,13.5,18.4,14.6z
	 M13,12.3c-2.1,0-3.8,1.1-3.8,2.3c0,1.3,1.7,2.3,3.8,2.3s3.8-1.1,3.8-2.3C16.8,13.4,15.1,12.3,13,12.3z M14.6,15.6
	c-0.4,0-0.8-0.3-0.8-0.8v-0.4c0-0.4,0.3-0.8,0.8-0.8c0.4,0,0.8,0.3,0.8,0.8v0.4C15.4,15.2,15.1,15.6,14.6,15.6z M11.4,15.6
	c-0.4,0-0.8-0.3-0.8-0.8v-0.4c0-0.4,0.3-0.8,0.8-0.8c0.4,0,0.8,0.3,0.8,0.8v0.4C12.1,15.2,11.8,15.6,11.4,15.6z M9.9,9.9
	c-0.4,0-0.8-0.3-0.8-0.8c0-0.4,0.3-0.8,0.8-0.8c0.4,0,0.8,0.3,0.8,0.8C10.7,9.6,10.4,9.9,9.9,9.9z"/>
</svg>
