<?xml version="1.0" encoding="utf-8"?>
<!-- Generator: Adobe Illustrator 28.1.0, SVG Export Plug-In . SVG Version: 6.00 Build 0)  -->
<svg version="1.1" id="Layer_1" xmlns="http://www.w3.org/2000/svg" xmlns:xlink="http://www.w3.org/1999/xlink" x="0px" y="0px"
	 width="24px" height="27px" viewBox="0 0 24 27" style="enable-background:new 0 0 24 27;" xml:space="preserve">
<style type="text/css">
	.st0{fill:#064781;}
</style>
<path class="st0" d="M6.9,3.4c-0.4,0-0.8,0.4-0.7,0.8c0,0.4,0.3,0.8,0.7,0.8c0.4,0,0.8-0.4,0.7-0.8C7.6,3.8,7.3,3.4,6.9,3.4z
	 M23,12.5c0-2.2-1.1-4.8-2.6-6.4c-0.3-0.3-0.7-0.3-1-0.1l-4.7,3c-1.1-0.7-2.3-1-3.6-0.9L9.9,6.7c0.5-0.7,0.7-1.5,0.7-2.3
	c0-2.1-1.7-3.9-3.8-3.9c-2,0-3,1.4-3.4,2.4c-0.6,0.3-1.7,1-2.4,2.6C1,5.8,1,6.1,1.1,6.3c0.2,0.2,0.4,0.4,0.7,0.4h0l0.6,0
	C2,7.6,1.5,8.7,1.5,9.3c0,0.7,0.3,1.3,0.8,1.8c-0.1,1.4-0.2,2.4-0.2,3c0,5,4,9.1,8.9,9.1c0.2,0,0.3,0,0.5,0l-0.5,1.6H9.9
	c-0.4,0-0.8,0.4-0.8,0.8c0,0.5,0.4,0.8,0.8,0.8h3.7c0.4,0,0.8-0.4,0.8-0.8c0-0.5-0.4-0.8-0.8-0.8h-0.7l0.5-1.8
	C19.3,22.3,23,18.4,23,12.5z M21.4,12.5c0,0.3,0,0.7,0,1l-2.5-0.7c0-0.2,0-0.4,0-0.7c0-0.1,0-0.2,0-0.4l2.4-0.6
	C21.3,11.6,21.4,12.1,21.4,12.5z M19.7,7.8c0.4,0.5,0.7,1.1,1,1.7l-2.2,0.6c-0.1-0.4-0.3-0.8-0.5-1.2L19.7,7.8z M18.4,14.3l2.6,0.8
	c-0.2,0.8-0.5,1.4-0.8,2.1l-2.3-1.8C18.1,15.1,18.3,14.7,18.4,14.3z M3.1,9.3c0-0.2,0.3-0.9,0.6-1.6c0.3,0.7,0.6,1.4,0.6,1.6
	c0,0.3-0.3,0.6-0.6,0.6C3.4,9.9,3.1,9.7,3.1,9.3z M11.1,21.6c-4,0-7.3-3.3-7.3-7.5c0-0.5,0.1-1.4,0.2-2.5c1.1-0.1,2-1.1,2-2.3
	c0-0.9-1.1-3-1.5-3.8c0,0,0,0,0,0C4.3,5.2,4,5,3.7,5h0L3.3,5c0.5-0.6,1-0.7,1-0.7C4.6,4.3,4.9,4,4.9,3.7c0-0.1,0.4-1.6,2-1.6
	c1.2,0,2.2,1,2.2,2.2C9.1,5,8.8,5.6,8.3,6C8,6.3,8,6.8,8.2,7.1l1.8,2.4c0.2,0.2,0.5,0.4,0.8,0.3c1.1-0.2,2.4,0.1,3.3,0.9
	c0.3,0.2,0.6,0.2,0.9,0l1.5-1c0.4,0.7,0.6,1.5,0.6,2.3c0,2.5-2,4.6-4.5,4.6c-1.4,0-2.7-0.7-3.6-1.8c-0.3-0.4-0.8-0.4-1.1-0.2
	c-0.4,0.3-0.4,0.8-0.2,1.2c1.2,1.6,3,2.5,4.9,2.5c1.6,0,3-0.6,4.1-1.6l2.4,1.8C17.5,20.5,14.7,21.6,11.1,21.6z"/>
</svg>
