<?xml version="1.0" encoding="utf-8"?>
<!-- Generator: Adobe Illustrator 28.1.0, SVG Export Plug-In . SVG Version: 6.00 Build 0)  -->
<svg version="1.1" id="Layer_1" xmlns="http://www.w3.org/2000/svg" xmlns:xlink="http://www.w3.org/1999/xlink" x="0px" y="0px"
	 width="26px" height="26px" viewBox="0 0 26 26" style="enable-background:new 0 0 26 26;" xml:space="preserve">
<style type="text/css">
	.st0{fill:#064781;}
</style>
<path class="st0" d="M25.5,10.2c0-0.4-0.3-0.8-0.6-1.1c-0.4-0.4-1-0.4-1.5-0.3C23.5,8,23,7.2,22.2,7c-0.4-0.1-0.9-0.1-1.3,0.1
	c-0.3,0.2-0.5,0.4-0.7,0.7c-0.3-0.3-0.8-0.5-1.4-0.5c-0.4,0-0.8,0.3-1.1,0.6c-0.1,0.1-0.1,0.2-0.2,0.3c0.2-0.6,0.2-1.2,0.1-1.8
	c-0.1-0.5-0.3-1-0.7-1.4c0.1-1.2-0.5-2.3-1.6-3c-0.9-0.5-2-0.7-3-0.3c-0.2-0.1-0.5-0.2-0.7-0.3C8.8,0.3,7.3,1.6,6.8,2.5
	C6.7,2.6,6.6,2.6,6.6,2.7c0,0,0,0,0,0c-1.2,0-2.3,0.6-2.9,1.5C3,5.2,2.9,6.4,3.5,7.5c-0.2,0.7-0.3,1.3-0.1,2c0.2,1,0.8,1.9,1.7,2.4
	c0.6,0.3,1.2,0.5,1.8,0.6c0.9,0.5,1.9,1.3,2.4,2.2c-0.2-0.1-0.5-0.2-0.7-0.2c-0.6-0.1-1.3,0-1.9,0.2c-0.3-0.9-0.9-1.7-1.7-2.2
	c-0.3-0.2-0.8-0.1-1,0.2c-0.2,0.3-0.1,0.7,0.2,0.9c0.4,0.2,0.7,0.5,0.9,0.9c-0.5-0.1-1-0.2-1.5-0.1c-2.1,0.4-3.5,2.7-3,5.3
	c0.5,2.5,2.6,4.3,4.7,4c0.3,0,0.5-0.1,0.8-0.2c0.2,0.1,0.5,0.2,0.8,0.2c0.2,0,0.4,0,0.6,0c0.5,0,1.1-0.1,1.6-0.4c1,1,2.5,1.6,4,1.6
	c1.3,0,2.4-0.4,3.4-1.1c0.2,0.1,0.4,0.2,0.7,0.3c0.3,0.1,0.5,0.1,0.8,0.1c1.1,0,2.1-0.6,2.6-1.6l2.9-6.4c0.4-0.9,0.4-1.9,0-2.8
	l1.8-2.1C25.4,11,25.5,10.6,25.5,10.2z M21.5,8.5c0-0.1,0.1-0.1,0.1-0.1c0,0,0.1,0,0.2,0c0.1,0,0.1,0.1,0.1,0.1c0,0,0,0.1,0,0.2
	l-0.9,2.9c-0.1,0-0.2,0-0.2-0.1c-0.1,0-0.2,0-0.2-0.1L21.5,8.5z M19,8.7c0.1,0,0.2,0.1,0.3,0.2l0.2,1.4l-0.3,0.9c0,0-0.1,0-0.1,0
	L18.8,9C18.8,8.8,18.9,8.7,19,8.7z M17.4,8.7c0,0.1,0,0.3,0,0.4l0.3,2.8c-0.9,0.6-1.4,1.4-1.6,2.4L16,15.1c-0.4-0.3-0.9-0.5-1.4-0.6
	l-0.1-0.3c-0.3-1.2,0.3-2.6,1-3.5C16.3,10.3,17,9.6,17.4,8.7z M7.8,11.1c-0.7,0.1-1.4,0-1.9-0.3c-0.6-0.4-1-0.9-1.1-1.6
	c-0.1-0.5-0.1-1,0.2-1.5C5,7.5,5,7.2,4.8,7c-0.4-0.6-0.4-1.5,0-2.1c0.4-0.5,1-0.9,1.7-0.9c0.1,0,0.2,0,0.3,0c0.3,0,0.5-0.1,0.7-0.3
	c0.1-0.2,0.2-0.3,0.4-0.4C7.9,3.3,8,3.2,8,3.2C8.1,3,8.8,1.8,11.1,2.7c0.3,0.1,0.5,0.2,0.7,0.4c0.2,0.2,0.5,0.2,0.7,0.1
	c0.6-0.3,1.4-0.3,2,0.1c0.7,0.4,1,1.2,0.9,1.9c0,0.2,0,0.4,0.2,0.5c0.3,0.3,0.5,0.7,0.5,1.1c0.1,0.6,0,1.3-0.4,1.9
	c-0.4,0.6-1,0.9-1.6,1.1c-0.6,0.1-1.1,0.1-1.6-0.2c-0.3-0.1-0.6-0.1-0.8,0.1c-0.6,0.4-1.3,0.6-2,0.6c-0.2,0-0.5,0.1-0.6,0.2
	C8.8,10.8,8.3,11,7.8,11.1z M11.5,11.3l-0.2,0.4L11,11.4C11.1,11.4,11.3,11.4,11.5,11.3z M8.9,12.2c0.2-0.1,0.3-0.1,0.5-0.2l1.7,1.4
	c0.1,0.1,0.3,0.2,0.5,0.2c0,0,0.1,0,0.1,0c0.2,0,0.4-0.2,0.5-0.4l1-2c0.1,0,0.3,0,0.4,0c-0.5,1.1-0.7,2.2-0.5,3.2c0,0,0,0-0.1,0
	c-0.8,0-1.5,0.1-2.2,0.4C10.5,13.7,9.8,12.8,8.9,12.2z M7.1,22.4c-0.2,0-0.4-0.1-0.6-0.2c-0.2-0.1-0.5-0.1-0.8,0
	c-0.2,0.1-0.4,0.2-0.6,0.2c-1.4,0.2-2.7-1-3.1-2.9c-0.3-1.8,0.5-3.5,1.8-3.7c0.6-0.1,1.2,0.1,1.8,0.5c0.3,0.2,0.7,0.2,0.9,0
	c0.5-0.5,1.2-0.6,1.8-0.5c0.2,0,0.4,0.1,0.6,0.2c-0.9,1-1.5,2.2-1.5,3.6c0,0.9,0.3,1.8,0.7,2.6C7.8,22.4,7.5,22.4,7.1,22.4z
	 M13,23.6c-2.3,0-4.2-1.8-4.2-4c0-2.2,1.9-4,4.2-4c2.3,0,4.2,1.8,4.2,4C17.2,21.8,15.3,23.6,13,23.6z M19.1,22.1
	c-0.3,0.6-0.9,0.9-1.6,0.7c0.4-0.4,0.6-0.9,0.8-1.5l1,0.3L19.1,22.1z M20.7,15.8l1.1,0.3l-1.9,4.3l-1.2-0.3c0,0,0,0,0,0
	c0-0.1,0-0.3,0-0.4c0-0.7-0.1-1.4-0.4-2c0.3,0,0.6-0.2,0.6-0.5c0.1-0.4-0.1-0.7-0.5-0.8L17.3,16l0.2-1.5c0.1-0.6,0.5-1.2,1-1.5
	c0.6-0.3,1.3-0.4,1.9-0.3c0.6,0.2,1.2,0.6,1.5,1.2c0.1,0.3,0.2,0.6,0.2,0.9l-1-0.3c-0.4-0.1-0.8,0.1-0.9,0.5
	C20.1,15.4,20.4,15.7,20.7,15.8z M24,10.5l-1.6,1.8c0,0,0-0.1-0.1-0.1l0.2-0.8l1-1.2c0.1-0.1,0.2-0.1,0.3,0
	C24.1,10.2,24.1,10.4,24,10.5z M15,20.8l-2,0.9c-0.4,0.2-0.5,0.6-0.3,0.9c0.1,0.2,0.4,0.4,0.7,0.4c0.1,0,0.2,0,0.3-0.1l2-0.9
	c0.4-0.2,0.5-0.6,0.3-0.9C15.8,20.7,15.3,20.6,15,20.8z"/>
</svg>
